# xmcd
#
# Track frame offsets:
#	150
#	18912
#	34589
#	55089
#	74103
#	89463
#	112655
#	132024
#	147978
#	167673
#	184429
#
# Disc length: 2679 seconds
#
# Revision: 1
# Processed by: cddbd v1.5.2PL0 Copyright (c) Steve Scherf et al.
# Submitted via: audiograbber 1.83.01
#
DISCID=940a750b
DTITLE=Deadstring Brothers - Silver Mountain
DYEAR=2007
DGENRE=Country Rock
TTITLE0=Ain't No Hidin' Love
TTITLE1=Meet Me Down at Heavy Load
TTITLE2=If You Want Me To
TTITLE3=Queen of the Scene
TTITLE4=Tenessee Sure Enough
TTITLE5=Silver Mountain
TTITLE6=Some Kind of User
TTITLE7=You Look Like The Devil
TTITLE8=Slow Down
TTITLE9=Rollin' Blues
TTITLE10=The Light Shines Within
EXTD=
EXTT0=
EXTT1=
EXTT2=
EXTT3=
EXTT4=
EXTT5=
EXTT6=
EXTT7=
EXTT8=
EXTT9=
EXTT10=
PLAYORDER=
